<svg width="25" height="25" viewBox="0 0 25 25" fill="none" xmlns="http://www.w3.org/2000/svg">
<path fill-rule="evenodd" clip-rule="evenodd" d="M4 12.5C4 7.80558 7.80558 4 12.5 4C17.1944 4 21 7.80558 21 12.5C21 17.1944 17.1944 21 12.5 21C7.80558 21 4 17.1944 4 12.5ZM11.5 9.25C11.5 8.69771 11.9477 8.25 12.5 8.25C13.0523 8.25 13.5 8.69771 13.5 9.25C13.5 9.80229 13.0523 10.25 12.5 10.25C11.9477 10.25 11.5 9.80229 11.5 9.25ZM12.5 17C12.9142 17 13.25 16.6642 13.25 16.25V11.75C13.25 11.3358 12.9142 11 12.5 11C12.0858 11 11.75 11.3358 11.75 11.75L11.75 16.25C11.75 16.6642 12.0858 17 12.5 17Z" fill="black"/>
</svg>
