<svg width="25" height="25" viewBox="0 0 25 25" fill="none" xmlns="http://www.w3.org/2000/svg">
<path fill-rule="evenodd" clip-rule="evenodd" d="M4 12.5C4 7.80558 7.80558 4 12.5 4C17.1944 4 21 7.80558 21 12.5C21 17.1944 17.1944 21 12.5 21C7.80558 21 4 17.1944 4 12.5ZM8.35104 13.8031C8.01909 13.4712 8.0191 12.933 8.35104 12.601C8.68299 12.2691 9.22118 12.2691 9.55312 12.601L10.9111 13.959L15.359 9.51109C15.6909 9.17915 16.2291 9.17914 16.561 9.51109C16.893 9.84304 16.893 10.3812 16.561 10.7132L11.5527 15.7215C11.5355 15.7387 11.5178 15.755 11.4996 15.7703C11.1669 16.092 10.6365 16.0886 10.308 15.7601L8.35104 13.8031Z" fill="black"/>
</svg>
