<svg width="25" height="25" viewBox="0 0 25 25" fill="none" xmlns="http://www.w3.org/2000/svg">
<path fill-rule="evenodd" clip-rule="evenodd" d="M11.634 5C12.0189 4.33333 12.9811 4.33333 13.366 5L21.1603 18.5C21.5452 19.1667 21.064 20 20.2942 20H4.70577C3.93597 20 3.45485 19.1667 3.83975 18.5L11.634 5ZM13.5 16.75C13.5 17.3023 13.0523 17.75 12.5 17.75C11.9477 17.75 11.5 17.3023 11.5 16.75C11.5 16.1977 11.9477 15.75 12.5 15.75C13.0523 15.75 13.5 16.1977 13.5 16.75ZM12.5 9C12.0858 9 11.75 9.33579 11.75 9.75V14.25C11.75 14.6642 12.0858 15 12.5 15C12.9142 15 13.25 14.6642 13.25 14.25V9.75C13.25 9.33579 12.9142 9 12.5 9Z" fill="black"/>
</svg>
