<svg width="264" height="270" viewBox="0 0 264 270" fill="none" xmlns="http://www.w3.org/2000/svg">
<path d="M84.9557 94C75.0735 94 61.0262 96.1104 48.7441 104.367C35.1722 113.491 25.9557 128.741 25.9557 149.5C25.9557 169.94 34.6844 185.247 48.659 194.324C61.0857 202.396 75.2761 204 84.9557 204H163.866V160H84.9557C79.1353 160 74.8257 158.854 72.6274 157.426C71.8081 156.893 71.3782 156.396 71.0476 155.765C70.6919 155.085 69.9557 153.286 69.9557 149.5C69.9557 145.882 70.6853 144.028 71.1353 143.18C71.5856 142.33 72.2258 141.6 73.2923 140.883C75.8852 139.14 80.3379 138 84.9557 138H125.456V94H84.9557Z" fill="black"/>
<path d="M170.366 160V204H192.456C202.103 204 209.538 204.305 214.617 206.478C216.555 207.306 217.203 208.05 217.52 208.526C217.834 208.999 218.956 210.911 218.956 216C218.956 219.969 218.049 221.174 217.974 221.274L217.971 221.279C217.83 221.473 217.228 222.223 215.021 223.092C209.572 225.237 201.77 225.5 192.456 225.5H37.455L0 269.495H37.4557V269.5H192.456C192.765 269.5 193.088 269.5 193.425 269.501C201.462 269.511 217.174 269.532 231.141 264.033C238.933 260.965 247.269 255.809 253.566 247.143C259.964 238.338 262.956 227.696 262.956 216C262.956 204.089 260.203 193.251 254.157 184.161C248.115 175.075 239.919 169.444 231.919 166.022C217.746 159.961 201.721 159.986 193.494 159.999H193.493C193.132 159.999 192.786 160 192.456 160H170.366Z" fill="black"/>
<path d="M165.456 46L163.489 187.5H121.456L123.423 0L165.456 46Z" fill="black"/>
<path d="M170.456 135.5V96L196.956 77.5L263.456 74L170.456 135.5Z" fill="black"/>
<path d="M211.456 114L184.456 132.5L196.456 155C196.456 155 222.956 154.5 235.456 162L211.456 114Z" fill="black"/>
</svg>
